<svg width="48" height="45" viewBox="0 0 48 45" fill="none" xmlns="http://www.w3.org/2000/svg">
<path class="color-primary color-fill" d="M42.7319 32.563C41.2301 31.1756 39.4753 30.0431 37.5479 29.2177C40.2659 27.185 41.9999 24.0833 41.9999 20.6051C41.9999 14.4682 36.4559 9.43362 29.808 9.52777C23.262 9.62193 17.988 14.5458 17.988 20.6051C17.988 24.0833 19.728 27.185 22.44 29.2177C20.5123 30.0425 18.7574 31.175 17.256 32.563C13.9801 35.5927 12.1201 39.5916 12.0001 43.8563C11.9985 43.9154 12.0097 43.9742 12.0331 44.0293C12.0565 44.0843 12.0916 44.1345 12.1363 44.1768C12.1811 44.2191 12.2345 44.2528 12.2936 44.2757C12.3526 44.2987 12.416 44.3105 12.4801 44.3105H15.8401C16.098 44.3105 16.314 44.1222 16.32 43.884C16.434 40.6716 17.844 37.6641 20.322 35.3822C21.5901 34.2054 23.0983 33.2725 24.7595 32.6374C26.4208 32.0024 28.2019 31.6777 30 31.6824C33.6539 31.6824 37.0919 32.995 39.6779 35.3822C42.1499 37.6641 43.5599 40.6716 43.6799 43.884C43.6859 44.1222 43.9019 44.3105 44.1599 44.3105H47.5199C47.5839 44.3105 47.6473 44.2987 47.7064 44.2757C47.7654 44.2528 47.8188 44.2191 47.8636 44.1768C47.9083 44.1345 47.9434 44.0843 47.9668 44.0293C47.9902 43.9742 48.0015 43.9154 47.9999 43.8563C47.8799 39.5916 46.0199 35.5927 42.7319 32.563ZM30 27.6945C27.948 27.6945 26.016 26.9579 24.57 25.6175C23.8443 24.9529 23.2711 24.1602 22.8845 23.2867C22.498 22.4131 22.306 21.4766 22.32 20.5331C22.338 18.7164 23.124 16.9606 24.498 15.6591C25.938 14.2966 27.864 13.5378 29.922 13.5156C31.956 13.499 33.9299 14.2301 35.3819 15.5427C36.8699 16.8886 37.6859 18.6887 37.6859 20.6051C37.6859 22.4993 36.8879 24.2772 35.4359 25.6175C34.7236 26.2783 33.8763 26.8021 32.9433 27.1586C32.0102 27.5151 31.0098 27.6973 30 27.6945ZM14.9701 22.0673C14.9161 21.5854 14.8861 21.098 14.8861 20.6051C14.8861 19.7244 14.9761 18.8659 15.1441 18.0296C15.1861 17.8302 15.0721 17.6253 14.8741 17.5422C14.0581 17.2043 13.3081 16.7391 12.6601 16.152C11.8965 15.4686 11.2957 14.6457 10.8959 13.7359C10.4961 12.8262 10.3061 11.8495 10.3381 10.8681C10.3921 9.09022 11.1661 7.40093 12.5161 6.12704C13.9981 4.72577 15.99 3.96143 18.108 3.98359C20.022 4.0002 21.87 4.68146 23.268 5.88888C23.742 6.29874 24.15 6.75291 24.492 7.24031C24.612 7.41201 24.846 7.48401 25.05 7.41755C26.106 7.07969 27.222 6.84153 28.368 6.73076C28.704 6.69753 28.896 6.36521 28.746 6.08827C26.796 2.52692 22.812 0.0677634 18.204 0.00129957C11.5501 -0.0928575 6.00611 4.94177 6.00611 11.0731C6.00611 14.5513 7.7401 17.653 10.4581 19.6857C8.5501 20.4998 6.79211 21.6242 5.26812 23.031C1.98014 26.0606 0.120149 30.0595 0.000150035 34.3298C-0.00145139 34.389 0.00978071 34.4478 0.0331848 34.5028C0.0565889 34.5578 0.0916913 34.608 0.136424 34.6503C0.181156 34.6927 0.234614 34.7263 0.293646 34.7493C0.352678 34.7722 0.41609 34.784 0.480147 34.784H3.84613C4.10413 34.784 4.32012 34.5957 4.32612 34.3575C4.44012 31.1451 5.85011 28.1376 8.3281 25.8557C10.0921 24.2273 12.2521 23.0975 14.6101 22.5491C14.8441 22.4937 15.0001 22.2888 14.9701 22.0673Z"/>
</svg>
