<svg width="48" height="48" viewBox="0 0 48 48" fill="none" xmlns="http://www.w3.org/2000/svg">
<path class="color-primary color-fill" d="M46.1169 38.3749C44.9128 35.7352 43.1655 33.3376 40.9722 31.3154C38.7856 29.2875 36.1954 27.6706 33.3446 26.554C33.3191 26.5422 33.2936 26.5363 33.268 26.5245C37.2446 23.8661 39.8297 19.536 39.8297 14.6505C39.8297 6.55728 32.7446 0 24 0C15.2554 0 8.17032 6.55728 8.17032 14.6505C8.17032 19.536 10.7554 23.8661 14.732 26.5304C14.7064 26.5422 14.6809 26.5481 14.6554 26.5599C11.7958 27.6764 9.22989 29.2774 7.02777 31.3214C4.83657 33.3451 3.08953 35.7423 1.88313 38.3808C0.697956 40.9638 0.0587673 43.7332 0.000159612 46.539C-0.00154403 46.602 0.010405 46.6647 0.035303 46.7234C0.0602009 46.7822 0.0975439 46.8357 0.145131 46.8808C0.192719 46.9259 0.249588 46.9618 0.312388 46.9863C0.375188 47.0108 0.442649 47.0234 0.510795 47.0234H4.34056C4.62141 47.0234 4.84481 46.8166 4.85119 46.5626C4.97885 42.002 6.95756 37.7309 10.4554 34.4937C14.0745 31.1441 18.8809 29.301 24 29.301C29.1191 29.301 33.9255 31.1441 37.5446 34.4937C41.0424 37.7309 43.0211 42.002 43.1488 46.5626C43.1552 46.8225 43.3786 47.0234 43.6594 47.0234H47.4892C47.5574 47.0234 47.6248 47.0108 47.6876 46.9863C47.7504 46.9618 47.8073 46.9259 47.8549 46.8808C47.9025 46.8357 47.9398 46.7822 47.9647 46.7234C47.9896 46.6647 48.0015 46.602 47.9998 46.539C47.936 43.7152 47.3041 40.9682 46.1169 38.3749ZM24 24.8113C21.0702 24.8113 18.3128 23.7539 16.2383 21.834C14.1639 19.914 13.0213 17.362 13.0213 14.6505C13.0213 11.939 14.1639 9.38695 16.2383 7.46703C18.3128 5.5471 21.0702 4.48967 24 4.48967C26.9298 4.48967 29.6872 5.5471 31.7616 7.46703C33.8361 9.38695 34.9786 11.939 34.9786 14.6505C34.9786 17.362 33.8361 19.914 31.7616 21.834C29.6872 23.7539 26.9298 24.8113 24 24.8113Z"/>
</svg>
